<svg xmlns="http://www.w3.org/2000/svg" width="512" height="512" viewBox="0 0 512 512">
  <rect x="20" y="20" width="472" height="472" rx="120" fill="#101216"/>
  <path fill="#d7ff70" d="M256 88c11 0 20 9 20 20 0 63 24 96 68 96 11 0 20 9 20 20s-9 20-20 20c-44 0-68 33-68 96 0 11-9 20-20 20s-20-9-20-20c0-63-24-96-68-96-11 0-20-9-20-20s9-20 20-20c44 0 68-33 68-96 0-11 9-20 20-20Z"/>
  <path fill="#d7ff70" d="M377 294c8 0 14 6 14 14 0 31 12 47 35 47 8 0 14 6 14 14s-6 14-14 14c-23 0-35 16-35 47 0 8-6 14-14 14s-14-6-14-14c0-31-12-47-35-47-8 0-14-6-14-14s6-14 14-14c23 0 35-16 35-47 0-8 6-14 14-14Z"/>
  <circle cx="151" cy="351" r="25" fill="#d7ff70"/>
</svg>
